<?xml version="1.0" encoding="utf-8"?>
<!-- Generator: Adobe Illustrator 19.0.0, SVG Export Plug-In . SVG Version: 6.00 Build 0)  -->
<svg version="1.1" id="layer" xmlns="http://www.w3.org/2000/svg" xmlns:xlink="http://www.w3.org/1999/xlink" x="0px" y="0px"
	 viewBox="-153 -46 652 652" style="enable-background:new -153 -46 652 652;" xml:space="preserve" width="200" height="400">
<style type="text/css">
	.st0{fill:#FF5400;}
</style>
<path class="st0" d="M81.5,234.9h8.6v-31h-8.6V234.9z M95.8,234.9h8.6v-17l13.4,17h7.5v-31h-8.6v16.5l-12.9-16.5h-8.1L95.8,234.9
	L95.8,234.9z M142.9,235.4c7.5,0,12.5-3.8,12.5-10.1v-0.2c0-5.8-4.5-8.1-11.5-9.6c-4.3-1-5.5-1.5-5.5-3.1c0-1.2,1-2.1,3.1-2.1
	c3.2,0.1,6.2,1.2,8.7,3.1l4.3-6c-3.7-2.9-8.2-4.3-12.9-4.1c-7.5,0-12,4.1-12,9.9v0.2c0,6.3,5.1,8.2,11.7,9.8c4.3,1,5.3,1.7,5.3,3.1
	v0.2c0,1.4-1.2,2.1-3.6,2.1c-3.7-0.1-7.3-1.4-10.1-3.8l-4.8,5.7C132.3,233.8,137.6,235.6,142.9,235.4L142.9,235.4z M166.4,234.9h8.6
	v-23.5h9.3v-7.5H157v7.5h9.3v23.5H166.4z M181.7,234.9h9.1l2.2-5.7h12l2.2,5.7h9.3l-13.4-31.2h-8.2L181.7,234.9L181.7,234.9z
	 M195.4,222.7l3.4-8.7l3.4,8.7H195.4z M219.4,234.9h8.6v-17l13.4,17h7.5v-31h-8.6v16.5l-12.9-16.5h-8.1V234.9z M261.7,234.9h8.6
	v-23.5h9.3v-7.5h-27.3v7.5h9.3v23.5H261.7z M-68.6,356.6c16.8,0.2,33.1-5.6,45.9-16.5v-47.5h-48.5v21.4h20.7V327
	c-5.1,3.2-11,4.8-17,4.5c-15.4,0.4-28.2-11.7-28.7-27c0-0.8,0-1.6,0-2.4v-0.3c-0.6-15.3,11.2-28.2,26.5-28.8c0.2,0,0.4,0,0.6,0
	c9.5-0.1,18.6,3.5,25.5,9.9l17.1-20.9c-11.8-10.3-27.2-15.8-42.9-15.3c-30.3-1.1-55.8,22.5-56.9,52.8c0,0.7,0,1.5,0,2.2v0.3
	C-126.1,333.8-101.5,356.6-68.6,356.6z M-22.3,354.4H8.3l7.5-19h41l7.5,19h31.4L50.9,247.9H22.6L-22.3,354.4z M24.5,312.6l12-30
	l11.8,30H24.5z M98.3,354.4H127v-60.5l26.9,41.3h0.7l27.1-41.5v60.7h29.1V248.6h-31l-25.2,41l-25.2-41h-31V354.4z M222.3,354.4h29.3
	V248.6h-29.3V354.4z M263.1,354.4h29v-57.9l45.3,58.1h25.5V248.6h-29v55.9l-43.4-55.9h-27.4V354.4z M428,356.6
	c16.8,0.2,33.1-5.6,45.9-16.5v-47.5h-48.5v21.4h20.7V327c-5.1,3.2-11,4.8-17,4.5c-15.4,0.4-28.2-11.7-28.7-27c0-0.8,0-1.6,0-2.4
	v-0.3c-0.6-15.3,11.2-28.2,26.5-28.8c0.2,0,0.4,0,0.6,0c9.5-0.1,18.6,3.5,25.5,9.9l17.1-20.9c-11.8-10.3-27.2-15.8-42.9-15.3
	c-30.3-1-55.7,22.7-56.7,52.9c0,0.7,0,1.4,0,2.1v0.3C370.6,333.8,395.1,356.6,428,356.6L428,356.6z"/>
</svg>
